<mxfile host="app.diagrams.net" modified="2024-06-07T12:16:49.863Z" agent="Mozilla/5.0 (Windows NT 10.0; Win64; x64) AppleWebKit/537.36 (KHTML, like Gecko) Chrome/125.0.0.0 Safari/537.36 Edg/125.0.0.0" version="24.5.2" etag="niHwKP50aDh3rDSxqScf" type="github">
  <diagram name="Page-1" id="9ykFV_Tjqfz8zrT0yjE0">
    <mxGraphModel>
      <root>
        <mxCell id="0" />
        <mxCell id="1" parent="0" />
      </root>
    </mxGraphModel>
  </diagram>
</mxfile>
